<svg width="127" height="92" viewBox="0 0 127 92" fill="none" xmlns="http://www.w3.org/2000/svg">
<path d="M78 75L87.2703 44.9229L78 17H99.1839V75H78ZM104.515 75V64.8086H104.999C108.876 64.8086 111.46 63.4276 112.753 60.6657C113.205 59.7819 113.431 58.8705 113.431 57.9314C113.431 55.1695 112.139 53.181 109.554 51.9657C108.262 51.3581 106.841 51.0543 105.29 51.0543H104.515V40.9457H105.29C108.908 40.9457 111.396 39.62 112.753 36.9686C113.205 36.0295 113.431 35.0629 113.431 34.0686C113.431 31.3619 112.107 29.3733 109.457 28.1029C108.101 27.4952 106.614 27.1914 104.999 27.1914H104.515V17H106.841C115.24 17 121.152 19.6238 124.577 24.8714C126.192 27.4124 127 30.2019 127 33.24C127 38.0457 125.288 41.94 121.863 44.9229C121.346 45.3095 120.862 45.6686 120.409 46C124.157 48.3752 126.322 51.9933 126.903 56.8543C126.968 57.5171 127 58.1524 127 58.76C127 64.1181 124.803 68.3162 120.409 71.3543C116.791 73.7848 112.268 75 106.841 75H104.515Z" fill="black"/>
<path d="M0 66.0845V23.4535C0 18.8751 12.1503 20.6028 16.9048 15.8516C23.244 9.63192 21.5007 0.086385 31.221 0V18.2704C26.8891 18.3568 24.0365 20.3437 22.6629 24.231C22.4516 24.8357 22.346 25.2676 22.346 25.5268V66.0845C22.346 69.6263 24.7232 72.0451 29.4777 73.3408C30.2173 73.5136 30.7455 73.6 31.0625 73.6V92C25.0402 92 19.0179 90.2291 12.9955 86.6873C4.4375 81.5042 0.105655 74.6366 0 66.0845ZM39.779 92V73.6C41.4695 73.6 43.3713 72.8657 45.4844 71.3972C47.4918 69.9286 48.5484 68.1577 48.654 66.0845V25.5268C48.654 23.9718 47.756 22.3305 45.9598 20.6028C44.2693 19.1343 42.2091 18.3568 39.779 18.2704V0C50.4501 0 59.0082 3.75775 65.4531 11.2732C69.3794 15.8516 71 19.6526 71 23.4535V66.0845C71 75.6732 48.654 66.0845 55.3103 88.1127C49.8162 90.7042 44.6391 92 39.779 92Z" fill="black"/>
</svg>
